<svg width="17" height="17" viewBox="0 0 17 17" fill="none" xmlns="http://www.w3.org/2000/svg">
<mask id="mask0_38_61" style="mask-type:luminance" maskUnits="userSpaceOnUse" x="0" y="0" width="17" height="17">
<path d="M16.8101 0.59H0.810059V16.59H16.8101V0.59Z" fill="white"/>
</mask>
<g mask="url(#mask0_38_61)">
<path d="M16.8071 9.16534C16.7874 8.92903 16.6296 8.73211 16.4128 8.65334L5.98455 5.03001C5.76771 4.95124 5.53115 5.01032 5.37345 5.16786C5.21574 5.32539 5.1566 5.5617 5.23546 5.77831L8.86267 16.1954C8.94152 16.412 9.13865 16.5695 9.37521 16.5892C9.39492 16.5892 9.41463 16.5892 9.41463 16.5892C9.63148 16.5892 9.82861 16.4711 9.92718 16.2742L11.4254 13.4582L13.377 15.4274C13.4953 15.5456 13.6333 15.6046 13.791 15.6046C13.9487 15.6046 14.1064 15.5456 14.2049 15.4274L15.6243 14.0096C15.7426 13.8914 15.8017 13.7536 15.8017 13.596C15.8017 13.4385 15.7426 13.281 15.6243 13.1825L13.653 11.233L16.4917 9.73641C16.7085 9.61825 16.8268 9.40164 16.8071 9.16534Z" fill="#010101"/>
<path d="M2.83106 1.80141C2.5945 1.5651 2.21995 1.5651 2.00311 1.80141C1.76654 2.03772 1.76654 2.41187 2.00311 2.62848L3.24503 3.86908C3.36331 3.98723 3.52102 4.0463 3.65901 4.0463C3.797 4.0463 3.9547 3.98723 4.07298 3.86908C4.30954 3.63277 4.30954 3.25862 4.07298 3.04201L2.83106 1.80141Z" fill="#010101"/>
<path d="M6.29963 3.19907C6.35877 3.47476 6.59533 3.67168 6.87131 3.67168C6.91074 3.67168 6.95016 3.67168 6.98959 3.65199C7.305 3.59291 7.52184 3.27784 7.4627 2.96277L7.10787 1.07233C7.04873 0.757261 6.73332 0.540649 6.41791 0.599725C6.1025 0.658801 5.88566 0.973873 5.94479 1.28895L6.29963 3.19907Z" fill="#010101"/>
<path d="M3.40221 6.09383L1.50975 5.73937C1.19434 5.6803 0.878933 5.89691 0.819793 6.21198C0.760654 6.52705 0.977499 6.84213 1.29291 6.9012L3.18537 7.25566C3.22479 7.25566 3.26422 7.27535 3.30365 7.27535C3.57963 7.27535 3.8359 7.07843 3.87533 6.80274C3.93446 6.44829 3.71762 6.15291 3.40221 6.09383Z" fill="#010101"/>
</g>
</svg>
