<svg width="855" height="518" fill="none" xmlns="http://www.w3.org/2000/svg"><path d="M811.849 515.308C812.996 515 813.761 513.641 814 513H757C757.239 513.641 758.004 515 759.151 515.308C759.27 516.205 759.796 518 760.943 518H810.057C811.204 518 811.73 516.205 811.849 515.308Z" fill="url(#paint0_linear_1072_6639)"/><path fill-rule="evenodd" clip-rule="evenodd" d="M811.819 516H760V517.605C760.251 517.842 760.563 518 760.943 518H810.057C811.127 518 811.656 516.751 811.819 516Z" fill="black" fill-opacity="0.3"/><path d="M95.8491 515.308C96.9962 515 97.761 513.641 98 513H41C41.239 513.641 42.0038 515 43.1509 515.308C43.2704 516.205 43.7962 518 44.9434 518H94.0566C95.2038 518 95.7296 516.205 95.8491 515.308Z" fill="url(#paint1_linear_1072_6639)"/><path fill-rule="evenodd" clip-rule="evenodd" d="M95.8194 516H44V517.605C44.2515 517.842 44.5633 518 44.9434 518H94.0566C95.1267 518 95.6561 516.751 95.8194 516Z" fill="black" fill-opacity="0.3"/><mask id="mask0_1072_6639" style="mask-type:alpha" maskUnits="userSpaceOnUse" x="0" y="492" width="855" height="21"><path d="M855 494.247V492H0V494.247C0 500.811 0 504.093 1.83927 506.6C3.45713 508.806 6.03866 510.599 9.21392 511.722C12.8237 513 17.5491 513 27 513H828C837.451 513 842.176 513 845.786 511.722C848.961 510.599 851.543 508.806 853.161 506.6C855 504.093 855 500.811 855 494.247Z" fill="white"/></mask><g mask="url(#mask0_1072_6639)"><path d="M855 494.247V492H0V494.247C0 500.811 0 504.093 1.83927 506.6C3.45713 508.806 6.03866 510.599 9.21392 511.722C12.8237 513 17.5491 513 27 513H828C837.451 513 842.176 513 845.786 511.722C848.961 510.599 851.543 508.806 853.161 506.6C855 504.093 855 500.811 855 494.247Z" fill="url(#paint2_linear_1072_6639)"/><rect x="759" y="492" width="96" height="21" fill="url(#paint3_linear_1072_6639)"/><rect width="96" height="21" transform="matrix(-1 0 0 1 96 492)" fill="url(#paint4_linear_1072_6639)"/><g filter="url(#filter0_f_1072_6639)"><path d="M3 489H13V500C13 502.761 10.7614 505 8 505C5.23858 505 3 502.761 3 500V489Z" fill="url(#paint5_linear_1072_6639)"/></g><g filter="url(#filter1_f_1072_6639)"><path d="M852 489H842V500C842 502.761 844.239 505 847 505C849.761 505 852 502.761 852 500V489Z" fill="url(#paint6_linear_1072_6639)"/></g></g><path d="M503 492V493.148C503 496.247 503 497.796 502.397 498.979C501.867 500.02 501.02 500.867 499.979 501.397C498.796 502 497.247 502 494.148 502H358.852C355.753 502 354.204 502 353.021 501.397C351.98 500.867 351.133 500.02 350.603 498.979C350 497.796 350 496.247 350 493.148V492H503Z" fill="url(#paint7_linear_1072_6639)"/><path d="M785 9.84211C785 4.40646 780.594 0 775.158 0H79.8421C74.4065 0 70 4.40645 70 9.8421L70 477.034C70 481.524 70.7495 492 75.6211 492H779.379C784.251 492 785 481.524 785 477.034V9.84211Z" fill="#2F3541"/><mask id="mask1_1072_6639" style="mask-type:alpha" maskUnits="userSpaceOnUse" x="70" y="469" width="715" height="23"><path d="M70 492V477.161C70 472.654 73.6539 469 78.1613 469H776.839C781.346 469 785 472.654 785 477.161V492H779.379H75.6211H70Z" fill="black"/></mask><g mask="url(#mask1_1072_6639)"><g filter="url(#filter2_d_1072_6639)"><path d="M774.822 492C783.206 489.963 781.914 477.926 781.946 472.752C781.948 472.339 781.606 471.998 781.194 472.022C768.702 472.761 773.139 491.65 766 492H774.822Z" fill="#141311"/></g><g filter="url(#filter3_d_1072_6639)"><path d="M80.1784 492C71.7942 489.963 73.086 477.926 73.0544 472.752C73.0519 472.339 73.3938 471.998 73.8056 472.022C86.2978 472.761 81.8612 491.65 89 492H80.1784Z" fill="#141311"/></g></g><path d="M773.895 5H83.1053C78.6288 5 75 8.62885 75 13.1053V484.368C75 486.926 77.0736 489 79.6316 489H777.368C779.926 489 782 486.926 782 484.368V13.1053C782 8.62885 778.371 5 773.895 5Z" fill="black"/><g filter="url(#filter4_ii_1072_6639)"><path d="M769.992 492C776.612 492 781.982 486.003 782 478.598V471H75V478.56C75 485.983 80.3764 492 87.0085 492H769.992Z" fill="url(#paint8_linear_1072_6639)"/></g><g filter="url(#filter5_ii_1072_6639)"><path fill-rule="evenodd" clip-rule="evenodd" d="M759.783 5.17247L96.2173 5.00583C83.3947 5.00261 72.9974 15.3272 72.9942 28.0665L72.881 477.863C72.8791 485.67 79.2484 492.002 87.1074 492.004L152.266 492.02L152.266 490.367C152.266 490.047 152.007 489.788 151.687 489.788L87.108 489.771C80.4899 489.77 75.1262 484.438 75.1279 477.863L75.241 28.067C75.2439 16.5606 84.6351 7.23516 96.2167 7.23807L759.782 7.4047C771.364 7.40761 780.75 16.7378 780.747 28.2442L780.634 478.04C780.633 484.615 775.266 489.944 768.648 489.943L704.069 489.926C703.749 489.926 703.49 490.185 703.49 490.505L703.489 492.158L768.648 492.175C776.506 492.177 782.879 485.849 782.881 478.041L782.994 28.2448C782.997 15.5055 772.605 5.17569 759.783 5.17247Z" fill="#232122"/></g><path d="M378 16H384.832C385.312 16 385.701 16.3888 385.701 16.8684V27.2632C385.701 28.2224 386.478 29 387.437 29H466.563C467.522 29 468.3 28.2224 468.3 27.2632V16.8684C468.3 16.3888 468.689 16 469.168 16H476H378Z" fill="black"/><g filter="url(#filter6_f_1072_6639)"><circle cx="426" cy="17" r="4" fill="#0F1316"/></g><g filter="url(#filter7_f_1072_6639)"><circle cx="424.5" cy="15.5" r="2.5" fill="#080905"/></g><g filter="url(#filter8_f_1072_6639)"><ellipse cx="426.5" cy="18.5" rx="1.5" ry="0.5" fill="#05111D"/></g><g filter="url(#filter9_f_1072_6639)"><ellipse cx="426.5" cy="16.5" rx="1.5" ry="0.5" fill="#05111D"/></g><g filter="url(#filter10_f_1072_6639)"><ellipse cx="426" cy="17.5" rx="1" ry="0.5" fill="#0F3455"/></g><g filter="url(#filter11_f_1072_6639)"><ellipse cx="426" cy="16.5" rx="1" ry="0.5" fill="#0F3857"/></g><defs><filter id="filter0_f_1072_6639" x="2.13158" y="488.132" width="11.7368" height="17.7368" filterUnits="userSpaceOnUse" color-interpolation-filters="sRGB"><feFlood flood-opacity="0" result="BackgroundImageFix"/><feBlend mode="normal" in="SourceGraphic" in2="BackgroundImageFix" result="shape"/><feGaussianBlur stdDeviation="0.434211" result="effect1_foregroundBlur_1072_6639"/></filter><filter id="filter1_f_1072_6639" x="841.132" y="488.132" width="11.7368" height="17.7368" filterUnits="userSpaceOnUse" color-interpolation-filters="sRGB"><feFlood flood-opacity="0" result="BackgroundImageFix"/><feBlend mode="normal" in="SourceGraphic" in2="BackgroundImageFix" result="shape"/><feGaussianBlur stdDeviation="0.434211" result="effect1_foregroundBlur_1072_6639"/></filter><filter id="filter2_d_1072_6639" x="765.855" y="471.732" width="16.5789" height="20.5575" filterUnits="userSpaceOnUse" color-interpolation-filters="sRGB"><feFlood flood-opacity="0" result="BackgroundImageFix"/><feColorMatrix in="SourceAlpha" type="matrix" values="0 0 0 0 0 0 0 0 0 0 0 0 0 0 0 0 0 0 127 0" result="hardAlpha"/><feOffset dx="0.144737"/><feGaussianBlur stdDeviation="0.144737"/><feComposite in2="hardAlpha" operator="out"/><feColorMatrix type="matrix" values="0 0 0 0 0.0784314 0 0 0 0 0.0745098 0 0 0 0 0.0666667 0 0 0 1 0"/><feBlend mode="normal" in2="BackgroundImageFix" result="effect1_dropShadow_1072_6639"/><feBlend mode="normal" in="SourceGraphic" in2="effect1_dropShadow_1072_6639" result="shape"/></filter><filter id="filter3_d_1072_6639" x="72.5658" y="471.732" width="16.5789" height="20.5575" filterUnits="userSpaceOnUse" color-interpolation-filters="sRGB"><feFlood flood-opacity="0" result="BackgroundImageFix"/><feColorMatrix in="SourceAlpha" type="matrix" values="0 0 0 0 0 0 0 0 0 0 0 0 0 0 0 0 0 0 127 0" result="hardAlpha"/><feOffset dx="-0.144737"/><feGaussianBlur stdDeviation="0.144737"/><feComposite in2="hardAlpha" operator="out"/><feColorMatrix type="matrix" values="0 0 0 0 0.0784314 0 0 0 0 0.0745098 0 0 0 0 0.0666667 0 0 0 1 0"/><feBlend mode="normal" in2="BackgroundImageFix" result="effect1_dropShadow_1072_6639"/><feBlend mode="normal" in="SourceGraphic" in2="effect1_dropShadow_1072_6639" result="shape"/></filter><filter id="filter4_ii_1072_6639" x="74.8553" y="470.855" width="707.289" height="21.1447" filterUnits="userSpaceOnUse" color-interpolation-filters="sRGB"><feFlood flood-opacity="0" result="BackgroundImageFix"/><feBlend mode="normal" in="SourceGraphic" in2="BackgroundImageFix" result="shape"/><feColorMatrix in="SourceAlpha" type="matrix" values="0 0 0 0 0 0 0 0 0 0 0 0 0 0 0 0 0 0 127 0" result="hardAlpha"/><feOffset dx="-0.144737" dy="-0.144737"/><feGaussianBlur stdDeviation="0.144737"/><feComposite in2="hardAlpha" operator="arithmetic" k2="-1" k3="1"/><feColorMatrix type="matrix" values="0 0 0 0 0 0 0 0 0 0 0 0 0 0 0 0 0 0 0.5 0"/><feBlend mode="normal" in2="shape" result="effect1_innerShadow_1072_6639"/><feColorMatrix in="SourceAlpha" type="matrix" values="0 0 0 0 0 0 0 0 0 0 0 0 0 0 0 0 0 0 127 0" result="hardAlpha"/><feOffset dx="0.144737" dy="-0.144737"/><feGaussianBlur stdDeviation="0.144737"/><feComposite in2="hardAlpha" operator="arithmetic" k2="-1" k3="1"/><feColorMatrix type="matrix" values="0 0 0 0 0 0 0 0 0 0 0 0 0 0 0 0 0 0 0.5 0"/><feBlend mode="normal" in2="effect1_innerShadow_1072_6639" result="effect2_innerShadow_1072_6639"/></filter><filter id="filter5_ii_1072_6639" x="72.8809" y="5.00586" width="710.113" height="487.314" filterUnits="userSpaceOnUse" color-interpolation-filters="sRGB"><feFlood flood-opacity="0" result="BackgroundImageFix"/><feBlend mode="normal" in="SourceGraphic" in2="BackgroundImageFix" result="shape"/><feColorMatrix in="SourceAlpha" type="matrix" values="0 0 0 0 0 0 0 0 0 0 0 0 0 0 0 0 0 0 127 0" result="hardAlpha"/><feOffset dy="0.144737"/><feGaussianBlur stdDeviation="0.217105"/><feComposite in2="hardAlpha" operator="arithmetic" k2="-1" k3="1"/><feColorMatrix type="matrix" values="0 0 0 0 1 0 0 0 0 1 0 0 0 0 1 0 0 0 0.1 0"/><feBlend mode="normal" in2="shape" result="effect1_innerShadow_1072_6639"/><feColorMatrix in="SourceAlpha" type="matrix" values="0 0 0 0 0 0 0 0 0 0 0 0 0 0 0 0 0 0 127 0" result="hardAlpha"/><feOffset dy="0.144737"/><feGaussianBlur stdDeviation="0.144737"/><feComposite in2="hardAlpha" operator="arithmetic" k2="-1" k3="1"/><feColorMatrix type="matrix" values="0 0 0 0 0 0 0 0 0 0 0 0 0 0 0 0 0 0 0.5 0"/><feBlend mode="normal" in2="effect1_innerShadow_1072_6639" result="effect2_innerShadow_1072_6639"/></filter><filter id="filter6_f_1072_6639" x="421.711" y="12.7105" width="8.57895" height="8.57895" filterUnits="userSpaceOnUse" color-interpolation-filters="sRGB"><feFlood flood-opacity="0" result="BackgroundImageFix"/><feBlend mode="normal" in="SourceGraphic" in2="BackgroundImageFix" result="shape"/><feGaussianBlur stdDeviation="0.144737" result="effect1_foregroundBlur_1072_6639"/></filter><filter id="filter7_f_1072_6639" x="421.711" y="12.7105" width="5.57895" height="5.57895" filterUnits="userSpaceOnUse" color-interpolation-filters="sRGB"><feFlood flood-opacity="0" result="BackgroundImageFix"/><feBlend mode="normal" in="SourceGraphic" in2="BackgroundImageFix" result="shape"/><feGaussianBlur stdDeviation="0.144737" result="effect1_foregroundBlur_1072_6639"/></filter><filter id="filter8_f_1072_6639" x="424.711" y="17.7105" width="3.57895" height="1.57895" filterUnits="userSpaceOnUse" color-interpolation-filters="sRGB"><feFlood flood-opacity="0" result="BackgroundImageFix"/><feBlend mode="normal" in="SourceGraphic" in2="BackgroundImageFix" result="shape"/><feGaussianBlur stdDeviation="0.144737" result="effect1_foregroundBlur_1072_6639"/></filter><filter id="filter9_f_1072_6639" x="424.711" y="15.7105" width="3.57895" height="1.57895" filterUnits="userSpaceOnUse" color-interpolation-filters="sRGB"><feFlood flood-opacity="0" result="BackgroundImageFix"/><feBlend mode="normal" in="SourceGraphic" in2="BackgroundImageFix" result="shape"/><feGaussianBlur stdDeviation="0.144737" result="effect1_foregroundBlur_1072_6639"/></filter><filter id="filter10_f_1072_6639" x="424.711" y="16.7105" width="2.57895" height="1.57895" filterUnits="userSpaceOnUse" color-interpolation-filters="sRGB"><feFlood flood-opacity="0" result="BackgroundImageFix"/><feBlend mode="normal" in="SourceGraphic" in2="BackgroundImageFix" result="shape"/><feGaussianBlur stdDeviation="0.144737" result="effect1_foregroundBlur_1072_6639"/></filter><filter id="filter11_f_1072_6639" x="424.711" y="15.7105" width="2.57895" height="1.57895" filterUnits="userSpaceOnUse" color-interpolation-filters="sRGB"><feFlood flood-opacity="0" result="BackgroundImageFix"/><feBlend mode="normal" in="SourceGraphic" in2="BackgroundImageFix" result="shape"/><feGaussianBlur stdDeviation="0.144737" result="effect1_foregroundBlur_1072_6639"/></filter><linearGradient id="paint0_linear_1072_6639" x1="757" y1="515.5" x2="814" y2="515.5" gradientUnits="userSpaceOnUse"><stop stop-color="#565F6D"/><stop offset="0.173014" stop-color="#2E353F"/><stop offset="0.31824" stop-color="#56606D"/><stop offset="0.691458" stop-color="#56606D"/><stop offset="0.825754" stop-color="#2E353F"/><stop offset="1" stop-color="#565F6D"/></linearGradient><linearGradient id="paint1_linear_1072_6639" x1="41" y1="515.5" x2="98" y2="515.5" gradientUnits="userSpaceOnUse"><stop stop-color="#565F6D"/><stop offset="0.173014" stop-color="#2E353F"/><stop offset="0.31824" stop-color="#56606D"/><stop offset="0.691458" stop-color="#56606D"/><stop offset="0.825754" stop-color="#2E353F"/><stop offset="1" stop-color="#565F6D"/></linearGradient><linearGradient id="paint2_linear_1072_6639" x1="427.5" y1="492" x2="427.5" y2="513" gradientUnits="userSpaceOnUse"><stop stop-color="#586170"/><stop offset="0.192522" stop-color="#56606C"/><stop offset="0.376094" stop-color="#4F5965"/><stop offset="0.598958" stop-color="#343C45"/><stop offset="0.713542" stop-color="#1B222C"/><stop offset="0.852125" stop-color="#161D27"/><stop offset="0.931356" stop-color="#444C57"/></linearGradient><linearGradient id="paint3_linear_1072_6639" x1="855" y1="502.818" x2="759" y2="502.818" gradientUnits="userSpaceOnUse"><stop stop-color="#212733" stop-opacity="0"/><stop offset="0.259918" stop-color="#212733"/><stop offset="1" stop-color="#212733" stop-opacity="0"/></linearGradient><linearGradient id="paint4_linear_1072_6639" x1="96" y1="10.8182" x2="3.28588e-08" y2="10.8182" gradientUnits="userSpaceOnUse"><stop stop-color="#212733" stop-opacity="0"/><stop offset="0.259918" stop-color="#212733"/><stop offset="1" stop-color="#212733" stop-opacity="0"/></linearGradient><linearGradient id="paint5_linear_1072_6639" x1="3" y1="494.486" x2="13" y2="494.486" gradientUnits="userSpaceOnUse"><stop offset="0.0875682" stop-color="white" stop-opacity="0.17"/><stop offset="0.272185" stop-color="white" stop-opacity="0.65"/><stop offset="0.489769" stop-color="white" stop-opacity="0.65"/><stop offset="0.677083" stop-color="white" stop-opacity="0.19"/><stop offset="1" stop-color="white" stop-opacity="0"/></linearGradient><linearGradient id="paint6_linear_1072_6639" x1="852" y1="494.486" x2="842" y2="494.486" gradientUnits="userSpaceOnUse"><stop offset="0.0875682" stop-color="white" stop-opacity="0.17"/><stop offset="0.272185" stop-color="white" stop-opacity="0.65"/><stop offset="0.489769" stop-color="white" stop-opacity="0.65"/><stop offset="0.677083" stop-color="white" stop-opacity="0.19"/><stop offset="1" stop-color="white" stop-opacity="0"/></linearGradient><linearGradient id="paint7_linear_1072_6639" x1="350.362" y1="496.848" x2="503" y2="496.848" gradientUnits="userSpaceOnUse"><stop stop-color="#131A24"/><stop offset="0.015659" stop-color="#343E4A"/><stop offset="0.035819" stop-color="#626E7E"/><stop offset="0.0504351" stop-color="#7F8A9C"/><stop offset="0.479167" stop-color="#7E889B"/><stop offset="0.941214" stop-color="#7F8A9C"/><stop offset="0.970403" stop-color="#626E7E"/><stop offset="0.980129" stop-color="#343E4A"/><stop offset="1" stop-color="#131A24"/></linearGradient><linearGradient id="paint8_linear_1072_6639" x1="428.5" y1="471" x2="428.5" y2="492" gradientUnits="userSpaceOnUse"><stop stop-color="#252525"/><stop offset="1" stop-color="#101010"/></linearGradient></defs></svg>