<svg width="330" height="200" fill="none" xmlns="http://www.w3.org/2000/svg"><path d="M313.17 198.923C313.613 198.8 313.908 198.256 314 198H292C292.092 198.256 292.387 198.8 292.83 198.923C292.876 199.282 293.079 200 293.522 200H312.478C312.921 200 313.124 199.282 313.17 198.923Z" fill="url(#paint0_linear_3079_7117)"/><path fill-rule="evenodd" clip-rule="evenodd" d="M313 199.538V199H293V199.538C293.112 199.789 293.282 200 293.522 200H312.478C312.718 200 312.888 199.789 313 199.538Z" fill="black"/><path d="M37.1698 198.923C37.6126 198.8 37.9078 198.256 38 198H16C16.0922 198.256 16.3874 198.8 16.8302 198.923C16.8763 199.282 17.0792 200 17.522 200H36.478C36.9208 200 37.1237 199.282 37.1698 198.923Z" fill="url(#paint1_linear_3079_7117)"/><path fill-rule="evenodd" clip-rule="evenodd" d="M37 199.538V199H17V199.538C17.1123 199.789 17.2819 200 17.522 200H36.478C36.7181 200 36.8877 199.789 37 199.538Z" fill="black"/><mask id="mask0_3079_7117" style="mask-type:alpha" maskUnits="userSpaceOnUse" x="0" y="190" width="330" height="8"><path d="M330 190.856V190H0V190.856C0 193.357 0 194.607 0.709892 195.562C1.33433 196.402 2.33071 197.085 3.55625 197.513C4.94948 198 6.77334 198 10.4211 198H319.579C323.227 198 325.051 198 326.444 197.513C327.669 197.085 328.666 196.402 329.29 195.562C330 194.607 330 193.357 330 190.856Z" fill="white"/></mask><g mask="url(#mask0_3079_7117)"><path d="M330 190.856V190H0V190.856C0 193.357 0 194.607 0.709892 195.562C1.33433 196.402 2.33071 197.085 3.55625 197.513C4.94948 198 6.77334 198 10.4211 198H319.579C323.227 198 325.051 198 326.444 197.513C327.669 197.085 328.666 196.402 329.29 195.562C330 194.607 330 193.357 330 190.856Z" fill="url(#paint2_linear_3079_7117)"/><rect x="293" y="190" width="37" height="8" fill="url(#paint3_linear_3079_7117)"/><rect width="37" height="8" transform="matrix(-1 0 0 1 37 190)" fill="url(#paint4_linear_3079_7117)"/><g filter="url(#filter0_f_3079_7117)"><path d="M1 189H5V193C5 194.105 4.10457 195 3 195V195C1.89543 195 1 194.105 1 193V189Z" fill="url(#paint5_linear_3079_7117)"/></g><g filter="url(#filter1_f_3079_7117)"><path d="M329 189H325V193C325 194.105 325.895 195 327 195V195C328.105 195 329 194.105 329 193V189Z" fill="url(#paint6_linear_3079_7117)"/></g></g><path d="M135 190H194C194 192.209 192.209 194 190 194H139C136.791 194 135 192.209 135 190Z" fill="url(#paint7_linear_3079_7117)"/><path d="M303 9.84211C303 4.40646 298.594 0 293.158 0H36.8421C31.4065 0 27 4.40645 27 9.84209L27 184.221C27 185.954 27.2893 190 29.1698 190H300.83C302.711 190 303 185.954 303 184.221V9.84211Z" fill="#2F3541"/><mask id="mask1_3079_7117" style="mask-type:alpha" maskUnits="userSpaceOnUse" x="27" y="181" width="276" height="9"><path d="M27 190V184.194C27 182.43 28.4298 181 30.1935 181H299.806C301.57 181 303 182.43 303 184.194V190H300.83H29.1698H27Z" fill="black"/></mask><g mask="url(#mask1_3079_7117)"><g filter="url(#filter2_d_3079_7117)"><path d="M299.308 190C302.241 189.24 302.016 185 301.983 182.753C301.976 182.342 301.637 181.991 301.232 182.066C297.124 182.821 298.584 189.865 296 190H299.308Z" fill="#141311"/></g><g filter="url(#filter3_d_3079_7117)"><path d="M30.6919 190C27.7592 189.24 27.9835 185 28.0173 182.753C28.0235 182.342 28.3635 181.991 28.7684 182.066C32.8762 182.821 31.4161 189.865 34 190H30.6919Z" fill="#141311"/></g></g><path d="M293.895 2H37.1053C32.6288 2 29 5.62885 29 10.1053V184.368C29 186.926 31.0736 189 33.6316 189H297.368C299.926 189 302 186.926 302 184.368V10.1053C302 5.62885 298.371 2 293.895 2Z" fill="black"/><g filter="url(#filter4_ii_3079_7117)"><path d="M297.363 190C299.92 190 301.993 187.715 302 184.894V182H29V184.88C29 187.708 31.076 190 33.6369 190H297.363Z" fill="url(#paint8_linear_3079_7117)"/></g><g filter="url(#filter5_ii_3079_7117)"><path fill-rule="evenodd" clip-rule="evenodd" d="M293.04 1H36.9599C32.0115 1 28 5.00788 28 9.95187V184.513C28 187.544 30.4587 190 33.4916 190H58.6371V189.713C58.6371 189.393 58.3779 189.134 58.0582 189.134H33.4916C30.9375 189.134 28.8671 187.065 28.8671 184.513V9.95187C28.8671 5.48633 32.4904 1.86631 36.9599 1.86631H293.04C297.51 1.86631 301.133 5.48633 301.133 9.95187V184.513C301.133 187.065 299.063 189.134 296.508 189.134H271.942C271.622 189.134 271.363 189.393 271.363 189.713V190H296.508C299.541 190 302 187.544 302 184.513V9.95187C302 5.00788 297.989 1 293.04 1Z" fill="#232122"/></g><path d="M146 6H148.118C148.597 6 148.986 6.38881 148.986 6.86842V9.26316C148.986 10.2224 149.764 11 150.723 11H179.277C180.237 11 181.014 10.2224 181.014 9.26316V6.86842C181.014 6.38881 181.403 6 181.883 6H184H146Z" fill="black"/><g filter="url(#filter6_f_3079_7117)"><circle cx="164.5" cy="6.5" r="1.5" fill="#0F1316"/></g><g filter="url(#filter7_f_3079_7117)"><circle cx="164" cy="6" r="1" fill="black"/></g><g filter="url(#filter8_f_3079_7117)"><ellipse cx="164.5" cy="7.24985" rx="0.5" ry="0.249851" fill="#05111D"/></g><g filter="url(#filter9_f_3079_7117)"><ellipse cx="164.5" cy="6.24985" rx="0.5" ry="0.249851" fill="#05111D"/></g><g filter="url(#filter10_f_3079_7117)"><ellipse cx="164.5" cy="6.81125" rx="0.374671" ry="0.187224" fill="#0F3455"/></g><g filter="url(#filter11_f_3079_7117)"><ellipse cx="164.5" cy="6.24963" rx="0.374671" ry="0.249632" fill="#0F3857"/></g><defs><filter id="filter0_f_3079_7117" x="0.131579" y="188.132" width="5.73684" height="7.73684" filterUnits="userSpaceOnUse" color-interpolation-filters="sRGB"><feFlood flood-opacity="0" result="BackgroundImageFix"/><feBlend mode="normal" in="SourceGraphic" in2="BackgroundImageFix" result="shape"/><feGaussianBlur stdDeviation="0.434211" result="effect1_foregroundBlur_3079_7117"/></filter><filter id="filter1_f_3079_7117" x="324.132" y="188.132" width="5.73684" height="7.73684" filterUnits="userSpaceOnUse" color-interpolation-filters="sRGB"><feFlood flood-opacity="0" result="BackgroundImageFix"/><feBlend mode="normal" in="SourceGraphic" in2="BackgroundImageFix" result="shape"/><feGaussianBlur stdDeviation="0.434211" result="effect1_foregroundBlur_3079_7117"/></filter><filter id="filter2_d_3079_7117" x="295.855" y="181.766" width="6.57895" height="8.5235" filterUnits="userSpaceOnUse" color-interpolation-filters="sRGB"><feFlood flood-opacity="0" result="BackgroundImageFix"/><feColorMatrix in="SourceAlpha" type="matrix" values="0 0 0 0 0 0 0 0 0 0 0 0 0 0 0 0 0 0 127 0" result="hardAlpha"/><feOffset dx="0.144737"/><feGaussianBlur stdDeviation="0.144737"/><feComposite in2="hardAlpha" operator="out"/><feColorMatrix type="matrix" values="0 0 0 0 0.0784314 0 0 0 0 0.0745098 0 0 0 0 0.0666667 0 0 0 1 0"/><feBlend mode="normal" in2="BackgroundImageFix" result="effect1_dropShadow_3079_7117"/><feBlend mode="normal" in="SourceGraphic" in2="effect1_dropShadow_3079_7117" result="shape"/></filter><filter id="filter3_d_3079_7117" x="27.5658" y="181.766" width="6.57895" height="8.5235" filterUnits="userSpaceOnUse" color-interpolation-filters="sRGB"><feFlood flood-opacity="0" result="BackgroundImageFix"/><feColorMatrix in="SourceAlpha" type="matrix" values="0 0 0 0 0 0 0 0 0 0 0 0 0 0 0 0 0 0 127 0" result="hardAlpha"/><feOffset dx="-0.144737"/><feGaussianBlur stdDeviation="0.144737"/><feComposite in2="hardAlpha" operator="out"/><feColorMatrix type="matrix" values="0 0 0 0 0.0784314 0 0 0 0 0.0745098 0 0 0 0 0.0666667 0 0 0 1 0"/><feBlend mode="normal" in2="BackgroundImageFix" result="effect1_dropShadow_3079_7117"/><feBlend mode="normal" in="SourceGraphic" in2="effect1_dropShadow_3079_7117" result="shape"/></filter><filter id="filter4_ii_3079_7117" x="28.8553" y="181.855" width="273.289" height="8.14474" filterUnits="userSpaceOnUse" color-interpolation-filters="sRGB"><feFlood flood-opacity="0" result="BackgroundImageFix"/><feBlend mode="normal" in="SourceGraphic" in2="BackgroundImageFix" result="shape"/><feColorMatrix in="SourceAlpha" type="matrix" values="0 0 0 0 0 0 0 0 0 0 0 0 0 0 0 0 0 0 127 0" result="hardAlpha"/><feOffset dx="-0.144737" dy="-0.144737"/><feGaussianBlur stdDeviation="0.144737"/><feComposite in2="hardAlpha" operator="arithmetic" k2="-1" k3="1"/><feColorMatrix type="matrix" values="0 0 0 0 0 0 0 0 0 0 0 0 0 0 0 0 0 0 0.5 0"/><feBlend mode="normal" in2="shape" result="effect1_innerShadow_3079_7117"/><feColorMatrix in="SourceAlpha" type="matrix" values="0 0 0 0 0 0 0 0 0 0 0 0 0 0 0 0 0 0 127 0" result="hardAlpha"/><feOffset dx="0.144737" dy="-0.144737"/><feGaussianBlur stdDeviation="0.144737"/><feComposite in2="hardAlpha" operator="arithmetic" k2="-1" k3="1"/><feColorMatrix type="matrix" values="0 0 0 0 0 0 0 0 0 0 0 0 0 0 0 0 0 0 0.5 0"/><feBlend mode="normal" in2="effect1_innerShadow_3079_7117" result="effect2_innerShadow_3079_7117"/></filter><filter id="filter5_ii_3079_7117" x="28" y="1" width="274" height="189.145" filterUnits="userSpaceOnUse" color-interpolation-filters="sRGB"><feFlood flood-opacity="0" result="BackgroundImageFix"/><feBlend mode="normal" in="SourceGraphic" in2="BackgroundImageFix" result="shape"/><feColorMatrix in="SourceAlpha" type="matrix" values="0 0 0 0 0 0 0 0 0 0 0 0 0 0 0 0 0 0 127 0" result="hardAlpha"/><feOffset dy="0.144737"/><feGaussianBlur stdDeviation="0.217105"/><feComposite in2="hardAlpha" operator="arithmetic" k2="-1" k3="1"/><feColorMatrix type="matrix" values="0 0 0 0 1 0 0 0 0 1 0 0 0 0 1 0 0 0 0.1 0"/><feBlend mode="normal" in2="shape" result="effect1_innerShadow_3079_7117"/><feColorMatrix in="SourceAlpha" type="matrix" values="0 0 0 0 0 0 0 0 0 0 0 0 0 0 0 0 0 0 127 0" result="hardAlpha"/><feOffset dy="0.144737"/><feGaussianBlur stdDeviation="0.144737"/><feComposite in2="hardAlpha" operator="arithmetic" k2="-1" k3="1"/><feColorMatrix type="matrix" values="0 0 0 0 0 0 0 0 0 0 0 0 0 0 0 0 0 0 0.5 0"/><feBlend mode="normal" in2="effect1_innerShadow_3079_7117" result="effect2_innerShadow_3079_7117"/></filter><filter id="filter6_f_3079_7117" x="162.711" y="4.71053" width="3.57895" height="3.57895" filterUnits="userSpaceOnUse" color-interpolation-filters="sRGB"><feFlood flood-opacity="0" result="BackgroundImageFix"/><feBlend mode="normal" in="SourceGraphic" in2="BackgroundImageFix" result="shape"/><feGaussianBlur stdDeviation="0.144737" result="effect1_foregroundBlur_3079_7117"/></filter><filter id="filter7_f_3079_7117" x="162.711" y="4.71053" width="2.57895" height="2.57895" filterUnits="userSpaceOnUse" color-interpolation-filters="sRGB"><feFlood flood-opacity="0" result="BackgroundImageFix"/><feBlend mode="normal" in="SourceGraphic" in2="BackgroundImageFix" result="shape"/><feGaussianBlur stdDeviation="0.144737" result="effect1_foregroundBlur_3079_7117"/></filter><filter id="filter8_f_3079_7117" x="163.711" y="6.71053" width="1.57895" height="1.07864" filterUnits="userSpaceOnUse" color-interpolation-filters="sRGB"><feFlood flood-opacity="0" result="BackgroundImageFix"/><feBlend mode="normal" in="SourceGraphic" in2="BackgroundImageFix" result="shape"/><feGaussianBlur stdDeviation="0.144737" result="effect1_foregroundBlur_3079_7117"/></filter><filter id="filter9_f_3079_7117" x="163.711" y="5.71053" width="1.57895" height="1.07864" filterUnits="userSpaceOnUse" color-interpolation-filters="sRGB"><feFlood flood-opacity="0" result="BackgroundImageFix"/><feBlend mode="normal" in="SourceGraphic" in2="BackgroundImageFix" result="shape"/><feGaussianBlur stdDeviation="0.144737" result="effect1_foregroundBlur_3079_7117"/></filter><filter id="filter10_f_3079_7117" x="163.836" y="6.33455" width="1.32895" height="0.953398" filterUnits="userSpaceOnUse" color-interpolation-filters="sRGB"><feFlood flood-opacity="0" result="BackgroundImageFix"/><feBlend mode="normal" in="SourceGraphic" in2="BackgroundImageFix" result="shape"/><feGaussianBlur stdDeviation="0.144737" result="effect1_foregroundBlur_3079_7117"/></filter><filter id="filter11_f_3079_7117" x="163.836" y="5.71053" width="1.32895" height="1.07821" filterUnits="userSpaceOnUse" color-interpolation-filters="sRGB"><feFlood flood-opacity="0" result="BackgroundImageFix"/><feBlend mode="normal" in="SourceGraphic" in2="BackgroundImageFix" result="shape"/><feGaussianBlur stdDeviation="0.144737" result="effect1_foregroundBlur_3079_7117"/></filter><linearGradient id="paint0_linear_3079_7117" x1="292" y1="199" x2="314" y2="199" gradientUnits="userSpaceOnUse"><stop stop-color="#565F6D"/><stop offset="0.173014" stop-color="#2E353F"/><stop offset="0.31824" stop-color="#56606D"/><stop offset="0.691458" stop-color="#56606D"/><stop offset="0.825754" stop-color="#2E353F"/><stop offset="1" stop-color="#565F6D"/></linearGradient><linearGradient id="paint1_linear_3079_7117" x1="16" y1="199" x2="38" y2="199" gradientUnits="userSpaceOnUse"><stop stop-color="#565F6D"/><stop offset="0.173014" stop-color="#2E353F"/><stop offset="0.31824" stop-color="#56606D"/><stop offset="0.691458" stop-color="#56606D"/><stop offset="0.825754" stop-color="#2E353F"/><stop offset="1" stop-color="#565F6D"/></linearGradient><linearGradient id="paint2_linear_3079_7117" x1="165" y1="190" x2="165" y2="198" gradientUnits="userSpaceOnUse"><stop stop-color="#586170"/><stop offset="0.192522" stop-color="#56606C"/><stop offset="0.376094" stop-color="#4F5965"/><stop offset="0.598958" stop-color="#343C45"/><stop offset="0.713542" stop-color="#1B222C"/><stop offset="0.852125" stop-color="#161D27"/><stop offset="0.931356" stop-color="#444C57"/></linearGradient><linearGradient id="paint3_linear_3079_7117" x1="330" y1="194.121" x2="293" y2="194.121" gradientUnits="userSpaceOnUse"><stop stop-color="#212733" stop-opacity="0"/><stop offset="0.259918" stop-color="#212733"/><stop offset="1" stop-color="#212733" stop-opacity="0"/></linearGradient><linearGradient id="paint4_linear_3079_7117" x1="37" y1="4.12121" x2="1.26643e-08" y2="4.12121" gradientUnits="userSpaceOnUse"><stop stop-color="#212733" stop-opacity="0"/><stop offset="0.259918" stop-color="#212733"/><stop offset="1" stop-color="#212733" stop-opacity="0"/></linearGradient><linearGradient id="paint5_linear_3079_7117" x1="1" y1="191.057" x2="5" y2="191.057" gradientUnits="userSpaceOnUse"><stop offset="0.0875682" stop-color="white" stop-opacity="0.17"/><stop offset="0.272185" stop-color="white" stop-opacity="0.65"/><stop offset="0.489769" stop-color="white" stop-opacity="0.65"/><stop offset="0.677083" stop-color="white" stop-opacity="0.19"/><stop offset="1" stop-color="white" stop-opacity="0"/></linearGradient><linearGradient id="paint6_linear_3079_7117" x1="329" y1="191.057" x2="325" y2="191.057" gradientUnits="userSpaceOnUse"><stop offset="0.0875682" stop-color="white" stop-opacity="0.17"/><stop offset="0.272185" stop-color="white" stop-opacity="0.65"/><stop offset="0.489769" stop-color="white" stop-opacity="0.65"/><stop offset="0.677083" stop-color="white" stop-opacity="0.19"/><stop offset="1" stop-color="white" stop-opacity="0"/></linearGradient><linearGradient id="paint7_linear_3079_7117" x1="135.139" y1="191.939" x2="194" y2="191.939" gradientUnits="userSpaceOnUse"><stop stop-color="#131A24"/><stop offset="0.015659" stop-color="#343E4A"/><stop offset="0.035819" stop-color="#626E7E"/><stop offset="0.0504351" stop-color="#7F8A9C"/><stop offset="0.479167" stop-color="#7E889B"/><stop offset="0.941214" stop-color="#7F8A9C"/><stop offset="0.970403" stop-color="#626E7E"/><stop offset="0.980129" stop-color="#343E4A"/><stop offset="1" stop-color="#131A24"/></linearGradient><linearGradient id="paint8_linear_3079_7117" x1="165.5" y1="182" x2="165.5" y2="190" gradientUnits="userSpaceOnUse"><stop stop-color="#252525"/><stop offset="1" stop-color="#101010"/></linearGradient></defs></svg>