<svg width="30" height="23" viewBox="0 0 30 23" fill="none" xmlns="http://www.w3.org/2000/svg">
<path d="M28.9277 3.63958C28.8015 3.00378 28.5196 2.42196 28.1259 1.94131C28.0429 1.83659 27.9561 1.7428 27.8621 1.64901C27.1646 0.948023 26.1856 0.510742 25.116 0.510742H4.88396C3.81444 0.510742 2.83892 0.948023 2.1381 1.64901C2.04431 1.7428 1.95758 1.83659 1.87434 1.94131C1.48043 2.42191 1.19852 3.00378 1.0758 3.63958C1.02538 3.88496 1 4.13855 1 4.39492V18.6045C1 19.1497 1.11561 19.6737 1.32178 20.1469C1.51302 20.5986 1.79499 21.0073 2.13805 21.3501C2.225 21.4368 2.31135 21.5165 2.40558 21.5958C3.07747 22.1523 3.94476 22.4883 4.88396 22.4883H25.116C26.0556 22.4883 26.9266 22.1523 27.5946 21.5923C27.6886 21.5165 27.7754 21.4368 27.8621 21.3501C28.205 21.0073 28.4869 20.5986 28.6821 20.1469V20.1434C28.8882 19.6702 28.9999 19.1497 28.9999 18.6046V4.39492C29 4.13855 28.975 3.88496 28.9277 3.63958ZM3.54346 3.0542C3.89045 2.70759 4.35645 2.49776 4.88396 2.49776H25.116C25.6436 2.49776 26.1136 2.70759 26.4565 3.0542C26.5179 3.11595 26.5757 3.18474 26.6267 3.2531L16.0224 12.495C15.73 12.7513 15.3687 12.8779 15 12.8779C14.635 12.8779 14.274 12.7513 13.9776 12.495L3.37738 3.24916C3.4243 3.1808 3.4821 3.11595 3.54346 3.0542ZM2.98702 18.6045V5.30536L10.661 11.9999L2.9909 18.6874C2.98702 18.662 2.98702 18.6335 2.98702 18.6045ZM25.116 20.5009H4.88396C4.54047 20.5009 4.21907 20.4106 3.94476 20.252L12.0373 13.1996L12.7928 13.8568C13.4251 14.4062 14.2162 14.6844 15 14.6844C15.7878 14.6844 16.5789 14.4062 17.2111 13.8568L17.9662 13.1996L26.0556 20.252C25.7809 20.4106 25.4595 20.5009 25.116 20.5009ZM27.013 18.6045C27.013 18.6335 27.013 18.662 27.0093 18.6874L19.3392 12.0038L27.013 5.30891V18.6045Z" fill="white" stroke="white" stroke-width="0.0546875"/>
</svg>
