<svg width="9" height="8" viewBox="0 0 9 8" fill="none" xmlns="http://www.w3.org/2000/svg">
<path d="M3.591 0.505337C3.59852 0.347387 3.85857 0.284756 3.93583 0.422778C4.29921 1.06976 4.91755 2.02029 5.62028 2.45402C6.32302 2.88633 7.45147 3.01222 8.19236 3.04539C8.35037 3.0529 8.41156 3.31295 8.27355 3.39021C7.62653 3.75358 6.67744 4.37194 6.24371 5.07467C5.80997 5.77741 5.68551 6.90586 5.65234 7.64678C5.64483 7.80471 5.38334 7.86592 5.30753 7.72789C4.94414 7.08092 4.3258 6.13183 3.62162 5.69808C2.9189 5.26435 1.79043 5.13989 1.05095 5.10673C0.893005 5.09921 0.830374 4.83772 0.968394 4.76191C1.61538 4.39853 2.56591 3.78018 2.99965 3.07601C3.43195 2.37327 3.55785 1.24482 3.591 0.505337Z" fill="black"/>
</svg>
