<svg width="24" height="24" viewBox="0 0 24 24" fill="none" xmlns="http://www.w3.org/2000/svg">
<path d="M22.6178 1.49944L0.929461 10.3428C0.809084 10.3936 0.706371 10.4789 0.634166 10.5879C0.561949 10.6967 0.523438 10.8246 0.523438 10.9553C0.523438 11.0859 0.561949 11.2138 0.634166 11.3226C0.706371 11.4316 0.809084 11.5169 0.929461 11.5678L6.21446 13.6444L8.26779 20.5744C8.29477 20.6744 8.34642 20.7661 8.41803 20.8409C8.48963 20.9158 8.57889 20.9714 8.6776 21.0027C8.77632 21.0341 8.88133 21.0402 8.983 21.0203C9.08466 21.0006 9.17973 20.9556 9.25946 20.8894L12.1994 18.3578C12.3503 18.2326 12.5401 18.164 12.7361 18.164C12.9321 18.164 13.122 18.2326 13.2728 18.3578L18.5928 22.4178C18.6769 22.4819 18.7763 22.5229 18.8812 22.5368C18.986 22.5505 19.0927 22.5368 19.1906 22.4966C19.2884 22.4566 19.3741 22.3916 19.4391 22.3082C19.504 22.2248 19.5462 22.1257 19.5611 22.0211L23.4578 2.2811C23.4912 2.16682 23.4923 2.04547 23.4608 1.93065C23.4292 1.81581 23.3663 1.71203 23.2791 1.6309C23.192 1.54978 23.084 1.49452 22.9672 1.4713C22.8503 1.44808 22.7294 1.45782 22.6178 1.49944ZM18.4878 6.16611L9.95942 14.5078C9.65757 14.8053 9.46446 15.1956 9.41113 15.6161L9.11946 17.9494C9.11946 18.0176 9.09242 18.0828 9.04428 18.131C8.99615 18.179 8.93087 18.2061 8.86279 18.2061C8.79472 18.2061 8.72943 18.179 8.68131 18.131C8.63317 18.0828 8.60613 18.0176 8.60613 17.9494L7.43946 13.8194C7.38184 13.5915 7.39445 13.3514 7.47565 13.1307C7.55684 12.91 7.70282 12.719 7.89446 12.5828L18.2194 5.8861C18.4061 5.76944 18.5928 6.03777 18.4411 6.18944L18.4878 6.16611Z" fill="#FEFEFE" stroke="white"/>
</svg>
